<?xml version="1.0" encoding="utf-8"?>
<svg id="svg2985" width="180" height="160" viewBox="0 0 166 135" xmlns="http://www.w3.org/2000/svg">
  <g id="g2993" transform="matrix(0,1.25,1.25,0,-252.8175,-1465.9261)">
    <g id="g3013">
      <g id="g3015" clip-path="url(#clipPath3017)" transform="translate(-3.5260217,1.1753406)">
        <g id="g3021" transform="translate(478.8281,339.5817)"/>
        <g id="g3025" transform="translate(478.8281,351.2176)"/>
        <g id="g3029" transform="translate(478.8281,379.2257)"/>
        <g id="g3033" transform="translate(478.8281,402.5441)"/>
        <g id="g3037" transform="translate(478.8281,418.2521)"/>
        <g id="g3041" transform="translate(478.5552,438.7105)"/>
        <g id="g3045" transform="translate(484.1338,466.4847)"/>
        <g id="g3049" transform="translate(483.7229,488.5196)"/>
        <g id="g3053" transform="translate(484.1338,512.1002)"/>
        <g id="g3057" transform="translate(478.8281,535.5232)"/>
        <g id="g3061" transform="translate(300.97,443.2226)"/>
        <g id="g3065" transform="translate(432.1223,424.9678)"/>
        <g id="g3069" transform="translate(357.1611,349.2364)"/>
        <g id="g3073" transform="translate(316.499,470.4266)"/>
        <g id="g3077" transform="translate(291.6465,440.8764)"/>
        <g id="g3081" transform="translate(290.8105,480.2143)"/>
        <g id="g3085" transform="translate(432.1223,424.9678)"/>
        <g id="g3089" transform="translate(352.7566,340.0963)"/>
        <g id="g3095" transform="translate(857.0842,381.5323)"/>
        <g id="g3099" transform="translate(857.0842,397.1277)"/>
        <g id="g3103" transform="translate(857.0842,434.6622)"/>
        <g id="g3107" transform="translate(857.0842,465.912)"/>
        <g id="g3111" transform="translate(857.0842,486.9642)"/>
        <g id="g3115" transform="translate(856.7183,514.3803)"/>
        <g id="g3119" transform="translate(864.1941,551.6016)"/>
        <g id="g3123" transform="translate(863.6445,581.1307)"/>
        <g id="g3127" transform="translate(864.1941,612.7325)"/>
        <g id="g3131" transform="translate(857.0842,644.1248)"/>
        <g id="g3135" transform="translate(861.2932,287.3613)"/>
        <g id="g3139" transform="translate(918.699,279.371)"/>
        <g id="g3143" transform="translate(885.8889,246.2236)"/>
        <g id="g3147" transform="translate(868.0906,299.2673)"/>
        <g id="g3151" transform="translate(857.2122,286.3347)"/>
        <g id="g3155" transform="translate(856.8462,303.5524)"/>
        <g id="g3159" transform="translate(918.699,279.371)"/>
        <g id="g3163" transform="translate(883.9607,242.2236)"/>
        <g id="g3169" transform="translate(1217.2081,381.5323)"/>
        <g id="g3173" transform="translate(1217.2081,397.1277)"/>
        <g id="g3177" transform="translate(1217.2081,434.6622)"/>
        <g id="g3181" transform="translate(1217.2081,465.912)"/>
        <g id="g3185" transform="translate(1217.2081,486.9642)"/>
        <g id="g3189" transform="translate(1216.8422,514.3803)"/>
        <g id="g3193" transform="translate(1224.318,551.6016)"/>
        <g id="g3197" transform="translate(1223.7686,581.1307)"/>
        <g id="g3201" transform="translate(1224.318,612.7325)"/>
        <g id="g3205" transform="translate(1217.2081,644.1248)"/>
        <g id="g3209" transform="translate(1221.4171,287.3613)"/>
        <g id="g3213" transform="translate(1278.8229,279.371)"/>
        <g id="g3217" transform="translate(1246.0128,246.2236)"/>
        <g id="g3221" transform="translate(1228.2146,299.2673)"/>
        <g id="g3225" transform="translate(1217.3362,286.3347)">
          <path d="m 0,0 0,-4.332 c 0,-0.957 0.503,-1.416 1.371,-1.663 l 12.798,-3.677 c 2.103,-0.602 4.662,-0.984 4.937,-1.007 -0.092,-0.007 -3.337,-0.277 -4.983,-0.597 L 1.371,-13.884 C 0.503,-14.049 0,-14.455 0,-15.411 l 0,-4.607 c 0,-0.955 0.503,-1.416 1.371,-1.664 l 12.798,-3.739 c 1.691,-0.501 3.839,-0.965 4.068,-0.99 -0.137,-0.014 -2.651,-0.264 -4.068,-0.562 L 1.371,-29.572 C 0.503,-29.732 0,-30.141 0,-31.097 l 0,-4.968 c 0,-0.96 0.503,-1.237 1.371,-1.075 l 28.337,5.956 c 0.869,0.161 1.371,0.658 1.371,1.48 l 0,4.801 c 0,0.959 -0.41,1.429 -1.371,1.717 l -13.117,3.853 c -1.508,0.424 -4.388,0.779 -4.706,0.845 0.136,0.009 3.381,0.187 4.661,0.474 l 13.162,2.732 c 0.869,0.161 1.371,0.663 1.371,1.487 l 0,4.798 c 0,0.958 -0.41,1.429 -1.371,1.712 L 1.371,0.934 C 0.503,1.182 0,0.957 0,0" style="fill-opacity: 1; fill-rule: nonzero; stroke: none; fill: rgb(249, 249, 249);" id="path3227"/>
        </g>
        <g id="g3229" transform="translate(1216.9702,303.5524)">
          <path d="m 0,0 c 0,-8.547 3.885,-11.465 7.816,-12.33 l 2.286,-0.514 c 0.457,-0.094 0.869,-0.183 1.142,-0.212 2.605,-0.269 4.617,1.269 5.302,3.04 l 2.469,6.056 c 0.548,1.371 1.37,3.455 2.833,3.31 0.046,-0.003 0.228,-0.021 0.548,-0.099 L 22.99,-0.9 c 2.102,-0.53 2.88,-2.362 2.88,-4.625 0,-2.217 -0.64,-3.769 -2.422,-3.586 -0.275,0.027 -0.503,0.051 -0.823,0.129 l -1.691,0.404 c -0.868,0.225 -1.371,10e-4 -1.371,-0.967 l 0,-4.791 c 0,-0.967 0.412,-1.472 1.371,-1.663 l 2.696,-0.609 c 0.64,-0.158 0.915,-0.188 1.144,-0.212 3.656,-0.384 7.038,2.318 7.038,10.235 0,8.798 -3.885,12.132 -7.817,12.974 L 21.163,6.982 C 20.659,7.075 20.34,7.152 20.02,7.183 17.186,7.453 14.901,5.739 13.849,2.855 l -2.605,-7.14 C 11.061,-4.724 10.742,-5.472 9.553,-5.353 l -0.274,0.027 -0.457,0.092 c -2.102,0.488 -2.88,2.078 -2.88,4.187 0,2.015 0.732,3.227 2.605,3.043 L 8.822,1.968 9.507,1.856 c 1.052,-0.196 1.371,0.093 1.371,0.966 l 0,4.775 c 0,0.963 -0.41,1.462 -1.371,1.646 L 7.816,9.587 C 7.268,9.683 7.085,9.703 6.902,9.719 3.382,10.054 0,7.679 0,0" style="fill-opacity: 1; fill-rule: nonzero; stroke: none; fill: rgb(249, 249, 249);" id="path3231"/>
        </g>
        <g id="g3233" transform="translate(1278.8229,279.371)">
          <path d="m 0,0 c 0,-24.985 -19.069,-45.599 -43.42,-48.053 l 0,10.146 c 0,1.292 -1.047,2.344 -2.341,2.344 -1.294,0 -2.344,-1.052 -2.344,-2.344 l 0,-10.388 c -0.065,0 -0.129,-0.003 -0.193,-0.003 -2.656,0 -5.259,0.223 -7.799,0.638 l 0,7.043 c 0,1.296 -1.049,2.347 -2.344,2.347 -1.292,0 -2.342,-1.051 -2.342,-2.347 l 0,-6.036 c -20.598,5.517 -35.815,24.338 -35.815,46.653 0,26.63 21.667,48.298 48.3,48.298 C -21.666,48.298 0,26.63 0,0 m -101.284,0 c 0,-24.916 17.291,-45.856 40.501,-51.486 l 0,-23.29 c 0,-1.294 1.05,-2.341 2.342,-2.341 1.295,0 2.344,1.047 2.344,2.341 l 0,22.369 c 2.547,-0.377 5.148,-0.578 7.799,-0.578 0.064,0 0.128,0.003 0.193,0.003 l 0,-9.682 c 0,-1.292 1.05,-2.342 2.344,-2.342 1.294,0 2.341,1.05 2.341,2.342 l 0,9.912 C -16.482,-50.278 4.686,-27.571 4.686,0 c 0,29.216 -23.769,52.986 -52.984,52.986 -29.217,0 -52.986,-23.77 -52.986,-52.986" style="fill-opacity: 1; fill-rule: nonzero; stroke: none; fill: rgb(249, 249, 249);" id="path3235"/>
        </g>
        <g id="g3237" transform="translate(1244.0845,242.2236)">
          <path d="m 0,0 c 0.438,-0.437 1.041,-0.688 1.654,-0.688 0.619,0 1.222,0.251 1.661,0.688 0.429,0.437 0.686,1.042 0.686,1.662 0,0.61 -0.257,1.213 -0.686,1.652 C 2.876,3.751 2.273,4 1.654,4 1.041,4 0.438,3.751 0,3.314 -0.876,2.436 -0.876,0.876 0,0" style="fill-opacity: 1; fill-rule: nonzero; stroke: none; fill: rgb(249, 249, 249);" id="path3239"/>
        </g>
        <g id="g3241" transform="translate(1586.2057,173.3363)"/>
        <g id="g3245" transform="translate(1586.2057,352.1395)"/>
        <g id="g3249" transform="translate(1586.2057,531.1933)"/>
        <g id="g3253" transform="translate(1586.2057,710.1213)"/>
        <g id="g3257" transform="translate(1760.3625,173.3363)"/>
        <g id="g3261" transform="translate(1760.3625,352.1395)"/>
        <g id="g3265" transform="translate(1760.3625,531.1933)"/>
        <g id="g3269" transform="translate(1760.3625,710.1213)"/>
        <g id="g3273" transform="translate(1927.1058,173.3363)"/>
        <g id="g3277" transform="translate(1927.1058,531.1933)"/>
        <g id="g3281" transform="translate(1927.1058,710.1213)"/>
        <g id="g3285" transform="translate(1535.652,179.8735)"/>
        <g id="g3289" transform="translate(1556.062,140.5347)"/>
        <g id="g3293" transform="translate(1550.2573,359.1288)"/>
        <g id="g3297" transform="translate(1508.9894,521.9362)"/>
        <g id="g3301" transform="translate(2348.0742,652.0801)"/>
        <g id="g3305" transform="translate(2237.0117,638.7648)"/>
        <g id="g3309" transform="translate(1518.7709,700.3856)"/>
        <g id="g3313" transform="translate(1556.3506,712.6478)"/>
        <g id="g3317" transform="translate(1544.3018,688.2017)"/>
        <g id="g3321" transform="translate(1714.6152,175.7687)"/>
        <g id="g3325" transform="translate(1691.3698,152.0765)"/>
        <g id="g3329" transform="translate(1693.4001,151.9762)"/>
        <g id="g3333" transform="translate(1711.4619,325.3604)"/>
        <g id="g3337" transform="translate(1701.5344,326.0237)"/>
        <g id="g3341" transform="translate(1717.2697,362.9916)"/>
        <g id="g3345" transform="translate(1689.4106,351.2852)"/>
        <g id="g3349" transform="translate(1694.7043,357.4591)"/>
        <g id="g3353" transform="translate(1721.2443,531.3209)"/>
        <g id="g3357" transform="translate(1719.9537,536.5366)"/>
        <g id="g3361" transform="translate(1715.8191,519.5284)"/>
        <g id="g3365" transform="translate(1711.5353,711.7866)"/>
        <g id="g3369" transform="translate(1719.0745,692.7128)"/>
        <g id="g3373" transform="translate(1687.3927,701.8539)"/>
        <g id="g3377" transform="translate(1901.5542,148.599)"/>
        <g id="g3381" transform="translate(2348.0742,237.9755)"/>
        <g id="g3385" transform="translate(2266.3855,246.0037)"/>
        <g id="g3389" transform="translate(2282.8479,213.5583)"/>
        <g id="g3397" transform="translate(1927.1053,349.5945)"/>
        <g id="g3401" transform="translate(1870.311,355.1762)"/>
        <g id="g3405" transform="translate(1881.7565,332.6188)"/>
        <g id="g3409" transform="translate(1847.7834,541.7446)"/>
        <g id="g3413" transform="translate(1878.0603,498.0195)"/>
        <g id="g3417" transform="translate(1877.3381,688.6133)"/>
        <g id="g3421" transform="translate(1854.6927,715.0819)"/>
        <g id="g3425" transform="translate(2750.2793,237.9764)"/>
        <g id="g3429" transform="translate(2679.9441,199.4593)"/>
        <g id="g3433" transform="translate(2665.665,200.4129)"/>
        <g id="g3437" transform="translate(2688.2979,253.585)"/>
        <g id="g3441" transform="translate(2648.2275,236.7474)"/>
        <g id="g3445" transform="translate(2655.8413,245.6281)"/>
        <g id="g3449" transform="translate(2750.2798,652.0791)"/>
        <g id="g3453" transform="translate(2680.0498,654.4746)"/>
        <g id="g3457" transform="translate(2690.8936,627.04)"/>
        <g id="g3461" transform="translate(2645.3245,640.1881)"/>
      </g>
    </g>
  </g>
</svg>