<?xml version="1.0" encoding="utf-8"?>
<!-- Generator: Adobe Illustrator 19.2.0, SVG Export Plug-In . SVG Version: 6.00 Build 0)  -->
<svg version="1.1" id="svg2985" xmlns="http://www.w3.org/2000/svg" xmlns:xlink="http://www.w3.org/1999/xlink" x="0px" y="0px"
	 viewBox="0 0 287.9 31" style="enable-background:new 0 0 287.9 31;" xml:space="preserve">
<style type="text/css">
	.st0{fill:#FFFFFF;}
</style>
<g id="g3015">
	<g id="g3021" transform="translate(478.8281,339.5817)">
	</g>
	<g id="g3025" transform="translate(478.8281,351.2176)">
	</g>
	<g id="g3029" transform="translate(478.8281,379.2257)">
	</g>
	<g id="g3033" transform="translate(478.8281,402.5441)">
	</g>
	<g id="g3037" transform="translate(478.8281,418.2521)">
	</g>
	<g id="g3041" transform="translate(478.5552,438.7105)">
	</g>
	<g id="g3045" transform="translate(484.1338,466.4847)">
	</g>
	<g id="g3049" transform="translate(483.7229,488.5196)">
	</g>
	<g id="g3053" transform="translate(484.1338,512.1002)">
	</g>
	<g id="g3057" transform="translate(478.8281,535.5232)">
	</g>
	<g id="g3061" transform="translate(300.97,443.2226)">
	</g>
	<g id="g3065" transform="translate(432.1223,424.9678)">
	</g>
	<g id="g3069" transform="translate(357.1611,349.2364)">
	</g>
	<g id="g3073" transform="translate(316.499,470.4266)">
	</g>
	<g id="g3077" transform="translate(291.6465,440.8764)">
	</g>
	<g id="g3081" transform="translate(290.8105,480.2143)">
	</g>
	<g id="g3085" transform="translate(432.1223,424.9678)">
	</g>
	<g id="g3089" transform="translate(352.7566,340.0963)">
	</g>
	<g id="g3095" transform="translate(857.0842,381.5323)">
	</g>
	<g id="g3099" transform="translate(857.0842,397.1277)">
	</g>
	<g id="g3103" transform="translate(857.0842,434.6622)">
	</g>
	<g id="g3107" transform="translate(857.0842,465.912)">
	</g>
	<g id="g3111" transform="translate(857.0842,486.9642)">
	</g>
	<g id="g3115" transform="translate(856.7183,514.3803)">
	</g>
	<g id="g3119" transform="translate(864.1941,551.6016)">
	</g>
	<g id="g3123" transform="translate(863.6445,581.1307)">
	</g>
	<g id="g3127" transform="translate(864.1941,612.7325)">
	</g>
	<g id="g3131" transform="translate(857.0842,644.1248)">
	</g>
	<g id="g3135" transform="translate(861.2932,287.3613)">
	</g>
	<g id="g3139" transform="translate(918.699,279.371)">
	</g>
	<g id="g3143" transform="translate(885.8889,246.2236)">
	</g>
	<g id="g3147" transform="translate(868.0906,299.2673)">
	</g>
	<g id="g3151" transform="translate(857.2122,286.3347)">
	</g>
	<g id="g3155" transform="translate(856.8462,303.5524)">
	</g>
	<g id="g3159" transform="translate(918.699,279.371)">
	</g>
	<g id="g3163" transform="translate(883.9607,242.2236)">
	</g>
	<g id="g3169" transform="translate(1217.2081,381.5323)">
		<path id="path3171" class="st0" d="M-1184.6-381.1h-1.2c-0.4,0-0.6,0.1-0.8,0.5l-8.5,22.5c-0.4,1.1-1,2.8-1.1,3.2
			c0-0.5-0.1-2.1-0.2-3.2l-3-22.5c0-0.4-0.1-0.5-0.5-0.5h-1.2c-0.4,0-0.5,0.1-0.6,0.5l-8.5,22.5c-0.4,0.9-1,2.8-1.1,3.1
			c0-0.4-0.1-2.4-0.2-3.1l-3-22.5c0-0.4-0.1-0.5-0.6-0.5h-1.4c-0.4,0-0.5,0.1-0.5,0.5l3.9,29.2c0,0.4,0.2,0.5,0.6,0.5h1.4
			c0.4,0,0.6-0.1,0.8-0.5l8.6-22.9c0.2-0.8,0.8-2.2,0.9-2.9c0,0.5,0.1,2.1,0.2,2.9l3,22.9c0,0.4,0.2,0.5,0.6,0.5h1.4
			c0.4,0,0.6-0.1,0.8-0.5l11-29.2C-1184.1-381-1184.3-381.1-1184.6-381.1"/>
	</g>
	<g id="g3173" transform="translate(1217.2081,397.1277)">
		<path id="path3175" class="st0" d="M-1169.5-396.7h-1.4c-0.4,0-0.6,0.1-0.8,0.5l-12.6,29.2c-0.1,0.2,0,0.5,0.4,0.5h1.2
			c0.4,0,0.5-0.1,0.6-0.5l3.8-8.6l0.9-1.9l5.2-12c0.5-1.2,1.4-4,1.5-4.6c0,0,0.4,3.9,0.5,4.8l2.2,11.9h-5.1l-0.9,1.9h6.2l1.6,8.6
			c0,0.4,0.2,0.5,0.6,0.5h1.4c0.4,0,0.5-0.1,0.4-0.5l-5.4-29.2C-1169-396.6-1169.1-396.7-1169.5-396.7"/>
	</g>
	<g id="g3177" transform="translate(1217.2081,434.6622)">
		<path id="path3179" class="st0" d="M-1133.1-434.3h-1.1c-0.4,0-0.6,0.1-0.6,0.5l-3.1,25c-0.1-0.2-0.8-1.9-1-2.5l-10-22.9
			c0-0.1-0.1-0.2-0.5-0.2h-1.1c-0.4,0-0.6,0.1-0.6,0.5l-3.6,29.2c0,0.4,0.1,0.5,0.5,0.5h1.2c0.4,0,0.5-0.1,0.5-0.5l3.1-25.1
			c0.2,0.8,0.8,2,1,2.8l10,22.6c0.1,0.1,0.2,0.2,0.5,0.2h1.1c0.4,0,0.5-0.1,0.6-0.5l3.6-29.1
			C-1132.6-434.1-1132.7-434.3-1133.1-434.3"/>
	</g>
	<g id="g3181" transform="translate(1217.2081,465.912)">
		<path id="path3183" class="st0" d="M-1102.8-465.5h-1.1c-0.4,0-0.6,0.1-0.6,0.5l-3.1,25c-0.1-0.2-0.8-1.9-1-2.5l-10-22.9
			c0-0.1-0.1-0.2-0.5-0.2h-1.1c-0.4,0-0.6,0.1-0.6,0.5l-3.6,29.2c0,0.4,0.1,0.5,0.5,0.5h1.2c0.4,0,0.5-0.1,0.5-0.5l3.1-25.1
			c0.2,0.8,0.8,2,1,2.8l10,22.6c0.1,0.1,0.2,0.2,0.5,0.2h1.1c0.4,0,0.5-0.1,0.6-0.5l3.6-29.1
			C-1102.3-465.4-1102.3-465.5-1102.8-465.5"/>
	</g>
	<g id="g3185" transform="translate(1217.2081,486.9642)">
		<path id="path3187" class="st0" d="M-1082.3-486.6h-1.4c-0.4,0-0.6,0.1-0.8,0.5l-12.6,29.2c-0.1,0.2,0,0.5,0.4,0.5h1.2
			c0.4,0,0.5-0.1,0.6-0.5l3.6-8.6l0.9-1.9l5.2-12c0.5-1.2,1.4-4,1.5-4.6c0,0,0.4,3.9,0.5,4.8l2.2,11.9h-5.1l-0.9,1.9h6.2l1.6,8.6
			c0,0.4,0.2,0.5,0.6,0.5h1.4c0.4,0,0.5-0.1,0.4-0.5l-5.4-29.2C-1081.7-486.4-1082-486.6-1082.3-486.6"/>
	</g>
	<g id="g3189" transform="translate(1216.8422,514.3803)">
		<path id="path3191" class="st0" d="M-1055.3-514.3c-7.2,0-9.2,2.7-9.6,6.2l-0.2,2.2c0,0.2,0,0.6,0,0.8c0,2.4,1.6,3.9,3.6,4.8
			l7.5,3c1.6,0.6,3.2,1.6,3.2,3.5c0,0.1,0,0.2,0,0.6l-0.5,3.2c-0.4,2.8-2.2,4.5-7.5,4.5c-4.8,0-6.4-1.5-6.4-3.8c0-0.2,0-0.5,0-0.9
			l0.2-2c0-0.4-0.1-0.6-0.5-0.6h-1.2c-0.4,0-0.5,0.1-0.5,0.6l-0.2,2.2c0,0.4-0.1,0.8-0.1,1c0,3,2.2,5.4,8.6,5.4
			c7.2,0,9.6-2.8,10-6.2l0.4-3.8c0-0.5,0-0.6,0-0.8c0-2.5-1.6-4-3.9-5l-8-3.2c-1.2-0.5-2.4-1.2-2.4-3c0-0.1,0-0.4,0-0.6l0.2-1.8
			c0.2-2.6,2-4.5,7.1-4.5c4.6,0,6.1,1.5,6.1,3.7c0,0.2,0,0.5,0,0.8l-0.2,1.9c-0.1,0.5,0.1,0.5,0.4,0.5h1.2c0.4,0,0.5-0.1,0.6-0.5
			l0.2-2.1c0-0.2,0-0.6,0-0.9C-1047-512.1-1049-514.3-1055.3-514.3"/>
	</g>
	<g id="g3193" transform="translate(1224.318,551.6016)">
		<path id="path3195" class="st0" d="M-1026.7-544.3l-0.6,5c-0.4,2.8-2.2,4.4-7.5,4.4h-6.8l1.8-14.2h6.9c4.8,0,6.4,1.6,6.4,4
			C-1026.7-544.9-1026.7-544.7-1026.7-544.3 M-1032.9-551.2h-8.6c-0.4,0-0.5,0.1-0.6,0.5l-3.6,29.2c0,0.4,0.1,0.5,0.5,0.5h1.4
			c0.4,0,0.5-0.1,0.5-0.5l1.4-11.5h6.9c7.2,0,9.6-2.5,10-6.1l0.9-5.5c0-0.4,0-0.6,0-1C-1024.3-548.7-1026.5-551.2-1032.9-551.2"/>
	</g>
	<g id="g3197" transform="translate(1223.7686,581.1307)">
		<path id="path3199" class="st0" d="M-997.4-574.4l-2.1,17.6c-0.4,2.8-2.4,4.6-7.5,4.6c-4.9,0-6.5-1.6-6.5-3.9c0-0.2,0-0.5,0.1-0.8
			l2.1-17.6c0.4-2.8,2.4-4.6,7.5-4.6c4.8,0,6.5,1.5,6.5,3.9C-997.4-575-997.4-574.7-997.4-574.4 M-1003.7-581.2
			c-7.2,0-9.6,2.8-10,6.2l-2.2,18.4c0,0.4-0.1,0.8-0.1,1c0,3,2.2,5.4,8.6,5.4c7.2,0,9.6-2.8,10-6.2l2.4-18.4c0-0.2,0-0.6,0-0.9
			C-995.1-578.8-997.3-581.2-1003.7-581.2"/>
	</g>
	<g id="g3201" transform="translate(1224.318,612.7325)">
		<path id="path3203" class="st0" d="M-967.4-605.5l-0.5,4.4c-0.4,2.8-2.2,4.4-7.5,4.4h-6.8l1.8-13.6h6.9c4.8,0,6.4,1.6,6.4,4
			C-967.4-606.1-967.4-606-967.4-605.5 M-973.6-612.3h-8.5c-0.4,0-0.5,0.1-0.6,0.5l-3.6,29.2c0,0.4,0.1,0.5,0.5,0.5h1.4
			c0.4,0,0.5-0.1,0.5-0.5l1.5-12h6.9c0.5,0,0.9,0,1.4,0l4.4,12.1c0.1,0.2,0.2,0.5,0.6,0.5h1.4c0.4,0,0.6-0.2,0.5-0.5l-4.5-12.2
			c4.4-1,5.9-3.2,6.2-6l0.6-5c0-0.4,0-0.6,0-0.9C-964.9-609.8-967.2-612.3-973.6-612.3"/>
	</g>
	<g id="g3205" transform="translate(1217.2081,644.1248)">
		<path id="path3207" class="st0" d="M-929.8-643.7h-18.5c-0.4,0-0.6,0.1-0.6,0.5l-0.1,1c0,0.4,0.1,0.5,0.5,0.5h8l-3.4,27.6
			c0,0.4,0.1,0.5,0.5,0.5h1.4c0.4,0,0.5-0.1,0.5-0.5l3.4-27.6h8c0.4,0,0.6-0.1,0.6-0.5l0.1-1C-929.3-643.6-929.4-643.7-929.8-643.7"
			/>
	</g>
	<g id="g3209" transform="translate(1221.4171,287.3613)">
	</g>
	<g id="g3213" transform="translate(1278.8229,279.371)">
	</g>
	<g id="g3217" transform="translate(1246.0128,246.2236)">
	</g>
	<g id="g3221" transform="translate(1228.2146,299.2673)">
	</g>
	<g id="g3225" transform="translate(1217.3362,286.3347)">
	</g>
	<g id="g3229" transform="translate(1216.9702,303.5524)">
	</g>
	<g id="g3233" transform="translate(1278.8229,279.371)">
	</g>
	<g id="g3237" transform="translate(1244.0845,242.2236)">
	</g>
	<g id="g3241" transform="translate(1586.2057,173.3363)">
	</g>
	<g id="g3245" transform="translate(1586.2057,352.1395)">
	</g>
	<g id="g3249" transform="translate(1586.2057,531.1933)">
	</g>
	<g id="g3253" transform="translate(1586.2057,710.1213)">
	</g>
	<g id="g3257" transform="translate(1760.3625,173.3363)">
	</g>
	<g id="g3261" transform="translate(1760.3625,352.1395)">
	</g>
	<g id="g3265" transform="translate(1760.3625,531.1933)">
	</g>
	<g id="g3269" transform="translate(1760.3625,710.1213)">
	</g>
	<g id="g3273" transform="translate(1927.1058,173.3363)">
	</g>
	<g id="g3277" transform="translate(1927.1058,531.1933)">
	</g>
	<g id="g3281" transform="translate(1927.1058,710.1213)">
	</g>
	<g id="g3285" transform="translate(1535.652,179.8735)">
	</g>
	<g id="g3289" transform="translate(1556.062,140.5347)">
	</g>
	<g id="g3293" transform="translate(1550.2573,359.1288)">
	</g>
	<g id="g3297" transform="translate(1508.9894,521.9362)">
	</g>
	<g id="g3301" transform="translate(2348.0742,652.0801)">
	</g>
	<g id="g3305" transform="translate(2237.0117,638.7648)">
	</g>
	<g id="g3309" transform="translate(1518.7709,700.3856)">
	</g>
	<g id="g3313" transform="translate(1556.3506,712.6478)">
	</g>
	<g id="g3317" transform="translate(1544.3018,688.2017)">
	</g>
	<g id="g3321" transform="translate(1714.6152,175.7687)">
	</g>
	<g id="g3325" transform="translate(1691.3698,152.0765)">
	</g>
	<g id="g3329" transform="translate(1693.4001,151.9762)">
	</g>
	<g id="g3333" transform="translate(1711.4619,325.3604)">
	</g>
	<g id="g3337" transform="translate(1701.5344,326.0237)">
	</g>
	<g id="g3341" transform="translate(1717.2697,362.9916)">
	</g>
	<g id="g3345" transform="translate(1689.4106,351.2852)">
	</g>
	<g id="g3349" transform="translate(1694.7043,357.4591)">
	</g>
	<g id="g3353" transform="translate(1721.2443,531.3209)">
	</g>
	<g id="g3357" transform="translate(1719.9537,536.5366)">
	</g>
	<g id="g3361" transform="translate(1715.8191,519.5284)">
	</g>
	<g id="g3365" transform="translate(1711.5353,711.7866)">
	</g>
	<g id="g3369" transform="translate(1719.0745,692.7128)">
	</g>
	<g id="g3373" transform="translate(1687.3927,701.8539)">
	</g>
	<g id="g3377" transform="translate(1901.5542,148.599)">
	</g>
	<g id="g3381" transform="translate(2348.0742,237.9755)">
	</g>
	<g id="g3385" transform="translate(2266.3855,246.0037)">
	</g>
	<g id="g3389" transform="translate(2282.8479,213.5583)">
	</g>
	<g id="g3397" transform="translate(1927.1053,349.5945)">
	</g>
	<g id="g3401" transform="translate(1870.311,355.1762)">
	</g>
	<g id="g3405" transform="translate(1881.7565,332.6188)">
	</g>
	<g id="g3409" transform="translate(1847.7834,541.7446)">
	</g>
	<g id="g3413" transform="translate(1878.0603,498.0195)">
	</g>
	<g id="g3417" transform="translate(1877.3381,688.6133)">
	</g>
	<g id="g3421" transform="translate(1854.6927,715.0819)">
	</g>
	<g id="g3425" transform="translate(2750.2793,237.9764)">
	</g>
	<g id="g3429" transform="translate(2679.9441,199.4593)">
	</g>
	<g id="g3433" transform="translate(2665.665,200.4129)">
	</g>
	<g id="g3437" transform="translate(2688.2979,253.585)">
	</g>
	<g id="g3441" transform="translate(2648.2275,236.7474)">
	</g>
	<g id="g3445" transform="translate(2655.8413,245.6281)">
	</g>
	<g id="g3449" transform="translate(2750.2798,652.0791)">
	</g>
	<g id="g3453" transform="translate(2680.0498,654.4746)">
	</g>
	<g id="g3457" transform="translate(2690.8936,627.04)">
	</g>
	<g id="g3461" transform="translate(2645.3245,640.1881)">
	</g>
</g>
</svg>
